<svg width="31" height="30" viewBox="0 0 31 30" fill="none" xmlns="http://www.w3.org/2000/svg">
<g id="ion:today" clip-path="url(#clip0_1_750)">
<path id="Vector" d="M21.9375 3.37492H21.0938V2.5549C21.0938 2.10086 20.7446 1.71115 20.2906 1.68848C20.1765 1.68298 20.0625 1.7007 19.9555 1.74057C19.8484 1.78044 19.7506 1.84162 19.6679 1.92041C19.5853 1.99921 19.5194 2.09396 19.4744 2.19895C19.4295 2.30393 19.4063 2.41696 19.4062 2.53117V3.37492H7.59375V2.5549C7.59375 2.10086 7.24465 1.71115 6.79061 1.68848C6.67652 1.68298 6.56251 1.7007 6.45548 1.74057C6.34845 1.78044 6.25063 1.84162 6.16794 1.92041C6.08525 1.99921 6.01942 2.09396 5.97444 2.19895C5.92946 2.30393 5.90626 2.41696 5.90625 2.53117V3.37492H5.0625C4.16739 3.37492 3.30895 3.7305 2.67601 4.36344C2.04308 4.99637 1.6875 5.85482 1.6875 6.74992V7.38274C1.6875 7.43868 1.70972 7.49233 1.74928 7.53189C1.78884 7.57145 1.84249 7.59367 1.89844 7.59367H25.1016C25.1575 7.59367 25.2112 7.57145 25.2507 7.53189C25.2903 7.49233 25.3125 7.43868 25.3125 7.38274V6.74992C25.3125 5.85482 24.9569 4.99637 24.324 4.36344C23.691 3.7305 22.8326 3.37492 21.9375 3.37492ZM25.1543 9.28117H1.8457C1.80375 9.28117 1.76351 9.29784 1.73384 9.32751C1.70417 9.35718 1.6875 9.39742 1.6875 9.43938V21.9374C1.6875 22.8325 2.04308 23.691 2.67601 24.3239C3.30895 24.9568 4.16739 25.3124 5.0625 25.3124H21.9375C22.8326 25.3124 23.691 24.9568 24.324 24.3239C24.9569 23.691 25.3125 22.8325 25.3125 21.9374V9.43938C25.3125 9.39742 25.2958 9.35718 25.2662 9.32751C25.2365 9.29784 25.1963 9.28117 25.1543 9.28117Z" fill="white"/>
<path id="Vector_2" d="M25.5184 16.8704L18.3841 24.8647L15.4986 21.6317C15.3313 21.4391 15.1272 21.2801 14.8951 21.1684C14.6606 21.0555 14.4045 20.9944 14.1427 20.9919C13.8809 20.9893 13.6236 21.0454 13.3869 21.1539L13.6994 21.8357L13.3868 21.1539C13.1504 21.2623 12.9417 21.4196 12.7701 21.6118C12.5987 21.8038 12.4672 22.0276 12.3793 22.2682C12.2915 22.5087 12.2481 22.7639 12.2501 23.0197C12.252 23.2755 12.2994 23.5301 12.3911 23.7692C12.4819 24.0062 12.6155 24.2259 12.7879 24.4138L16.9758 29.1052C17.1524 29.3032 17.3668 29.4653 17.6092 29.5779C17.8519 29.6905 18.1157 29.75 18.3845 29.75C18.6533 29.75 18.9171 29.6905 19.1598 29.5779C19.4022 29.4654 19.6165 29.3032 19.7931 29.1053C19.7932 29.1053 19.7932 29.1052 19.7932 29.1052L28.23 19.6524L28.2301 19.6523C28.5709 19.2703 28.75 18.7688 28.75 18.2613C28.75 17.7539 28.5709 17.2524 28.2301 16.8704C28.0605 16.6802 27.8544 16.5242 27.621 16.4158C27.3873 16.3073 27.1333 16.25 26.8743 16.25C26.6152 16.25 26.3612 16.3073 26.1275 16.4158C25.8942 16.5241 25.6881 16.6802 25.5185 16.8703C25.5185 16.8703 25.5184 16.8704 25.5184 16.8704Z" fill="white" stroke="#46B56B" stroke-width="1.5"/>
</g>
<defs>
<clipPath id="clip0_1_750">
<rect width="31" height="30" fill="white"/>
</clipPath>
</defs>
</svg>
