<svg width="196" height="38" viewBox="0 0 196 38" fill="none" xmlns="http://www.w3.org/2000/svg">
<path d="M0.00472511 19L19 38L8.29392 33.5627C6.54733 32.8405 5.16424 31.4527 4.43728 29.7061L0 19H0.00472511Z" fill="white"/>
<path d="M19.0046 0L0.00927734 18.9953L4.4418 8.28919C5.16404 6.54261 6.55189 5.15479 8.29847 4.43255L19.0046 0Z" fill="white"/>
<path d="M38.0047 19L33.5674 29.7061C32.8452 31.4527 31.4574 32.8405 29.7108 33.5627L19 38L38 19H38.0047Z" fill="white"/>
<path d="M38.0044 19.0002L19.0044 0.00488281L29.7152 4.44215C31.4618 5.16438 32.8496 6.55222 33.5718 8.2988L38.0044 19.0049V19.0002Z" fill="white"/>
<path d="M32.5338 17.2204L29.9281 10.9232L29.7959 10.6023L29.0973 8.90759L27.4026 8.20896L27.0863 8.07678L20.7892 5.46634C19.6468 4.99429 18.3629 4.99429 17.2252 5.46634L10.9328 8.07678L10.6024 8.21369L8.91716 8.90759L8.22323 10.5928L8.08635 10.9232L5.48062 17.2157C5.00385 18.3533 5.00385 19.642 5.48062 20.7797L8.08635 27.0768L8.22323 27.4025L8.91716 29.0924L10.6024 29.7863L10.9375 29.9233L17.2299 32.5289C18.3676 33.001 19.6563 33.001 20.7939 32.5289L27.0911 29.9233L27.4073 29.7911L29.102 29.0924L29.8006 27.3978L29.9328 27.0768L32.5385 20.7891C33.0153 19.6514 33.0153 18.3627 32.5385 17.2251L32.5338 17.2204ZM20.5957 23.3665C19.6091 22.7811 18.3865 22.7811 17.4093 23.3665L10.5646 27.4403L14.6337 20.5955C15.219 19.609 15.219 18.3864 14.6337 17.4092L10.5646 10.5645L17.4093 14.6383C18.3912 15.2189 19.6138 15.2189 20.5957 14.6383L27.4451 10.5645L23.376 17.4092C22.7907 18.3911 22.7907 19.6137 23.376 20.5955L27.4498 27.4403L20.6004 23.3665H20.5957Z" fill="white"/>
<path d="M111.087 21.3082C110.601 20.3358 109.803 19.5003 108.684 18.7969C107.57 18.0936 105.965 17.4186 103.879 16.7719L102.619 16.3895L102.099 16.2337C100.405 15.7286 99.2624 15.3226 98.6676 15.0158C98.0728 14.7137 97.7754 14.2511 97.7754 13.6422C97.7754 12.9577 98.1908 12.4998 99.0216 12.2638C99.8477 12.0277 101.783 11.8531 107.316 12.665L111.13 7.79346C110.082 7.4347 106.65 6.13184 101.665 6.13184C97.7754 6.13184 94.9242 6.78326 93.1069 8.07668C91.2895 9.37481 90.3784 11.263 90.3784 13.7507C90.3784 15.8372 90.9637 17.4563 92.1344 18.6081C93.3051 19.7599 95.1508 20.7512 97.6669 21.5773C97.9171 21.6623 98.1484 21.7425 98.3702 21.818C98.8942 21.988 99.3426 22.1249 99.7203 22.2287C101.557 22.8046 102.798 23.272 103.449 23.6307C104.096 23.9895 104.422 24.4946 104.422 25.1413C104.422 25.8635 104.068 26.3403 103.365 26.5763C102.666 26.8076 101.377 26.9256 99.5078 26.9256C98.1011 26.9256 96.6047 26.7887 95.0234 26.5197C94.9242 26.5008 94.8298 26.4866 94.7354 26.4677L90.8646 31.4101C91.9456 31.8397 93.3476 32.1843 95.0753 32.4345C96.803 32.6846 98.6062 32.8121 100.476 32.8121C104.224 32.8121 107.046 32.1559 108.958 30.8389C110.865 29.5266 111.819 27.5912 111.819 25.0374C111.819 23.5221 111.573 22.2807 111.087 21.3082Z" fill="white"/>
<path d="M61.0076 21.3082C60.5214 20.3358 59.7237 19.5003 58.6049 18.7969C57.4909 18.0936 55.8859 17.4186 53.7995 16.7719L52.5391 16.3895L52.0198 16.2337C50.3252 15.7286 49.1828 15.3226 48.588 15.0158C47.9932 14.7137 47.6958 14.2511 47.6958 13.6422C47.6958 12.9577 48.1112 12.4998 48.9421 12.2638C49.7681 12.0277 51.7036 11.8531 57.236 12.665L61.0501 7.79346C60.0022 7.4347 56.5704 6.13184 51.5856 6.13184C47.6959 6.13184 44.8447 6.78326 43.0273 8.07668C41.2099 9.37481 40.2988 11.263 40.2988 13.7507C40.2988 15.8372 40.8842 17.4563 42.0549 18.6081C43.2256 19.7599 45.0713 20.7512 47.5873 21.5773C47.8375 21.6623 48.0688 21.7425 48.2906 21.818C48.8146 21.988 49.263 22.1249 49.6407 22.2287C51.477 22.8046 52.7185 23.272 53.3699 23.6307C54.0166 23.9895 54.3423 24.4946 54.3423 25.1413C54.3423 25.8635 53.9883 26.3403 53.2849 26.5763C52.5863 26.8076 51.2976 26.9256 49.4283 26.9256C48.0216 26.9256 46.5252 26.7887 44.9438 26.5197C44.8447 26.5008 44.7502 26.4866 44.6558 26.4677L40.7851 31.4101C41.866 31.8397 43.268 32.1843 44.9957 32.4345C46.7234 32.6846 48.5267 32.8121 50.396 32.8121C54.1441 32.8121 56.9669 32.1559 58.8787 30.8389C60.7858 29.5266 61.7393 27.5912 61.7393 25.0374C61.7393 23.5221 61.4939 22.2807 61.0076 21.3082Z" fill="white"/>
<path d="M126.061 6.13184C124.116 6.13184 122.289 6.27818 120.58 6.56613C118.871 6.85408 115.968 7.72264 114.708 8.22774V13.3542C117.408 12.4573 121.633 11.5321 124.55 11.5321C126.311 11.5321 127.67 11.6784 128.624 11.9664C129.578 12.2543 130.248 12.7028 130.626 13.3164C131.003 13.9301 131.192 14.7751 131.192 15.8561V16.5547H123.63C120.212 16.5547 117.592 17.3053 115.775 18.7969C113.953 20.2933 113.046 22.3184 113.046 24.8722C113.046 27.426 113.92 29.3472 115.666 30.7303C117.413 32.1182 119.58 32.8121 122.171 32.8121C125.971 32.8121 130.286 31.4809 132.353 29.8429L132.013 25.1413C131.692 25.3348 128.676 27.0625 128.308 27.223C127.099 27.747 125.726 28.0066 124.177 28.0066C121.081 28.0066 119.532 26.8737 119.532 24.6031C119.532 22.3326 120.953 21.0911 123.8 21.0911H131.197L131.371 32.274H138.164V16.0166C138.164 9.42674 134.128 6.13184 126.066 6.13184H126.061Z" fill="white"/>
<path d="M191.676 9.56365C189.372 7.27893 185.879 6.13184 181.201 6.13184C176.523 6.13184 173.034 7.27893 170.75 9.56365C168.46 11.8484 167.318 15.1527 167.318 19.472C167.318 28.3654 171.944 32.8121 181.201 32.8121C190.458 32.8121 195.131 28.3654 195.131 19.472C195.131 15.1527 193.979 11.8484 191.676 9.56365ZM186.247 24.9808C185.256 26.0618 183.575 26.5999 181.201 26.5999C178.826 26.5999 177.193 26.0618 176.202 24.9808C175.211 23.8998 174.72 22.0635 174.72 19.472C174.72 16.8804 175.211 15.0441 176.202 13.9632C177.193 12.8822 178.86 12.344 181.201 12.344C183.542 12.344 185.256 12.8822 186.247 13.9632C187.238 15.0441 187.734 16.8804 187.734 19.472C187.734 22.0635 187.238 23.8998 186.247 24.9808Z" fill="white"/>
<path d="M163.079 8.72811C161.493 7.10426 159.293 6.24514 156.47 6.14129C156.281 6.13657 156.093 6.13184 155.899 6.13184C152.67 6.13184 149.871 6.96264 147.516 8.63369C147.298 8.78003 147.086 8.94053 146.878 9.10574L146.609 6.6747H139.859V32.274H147.152V14.1284C147.35 13.9301 147.558 13.7366 147.775 13.5619C148.242 13.1654 148.757 12.8208 149.309 12.5187C149.512 12.4101 149.72 12.3062 149.932 12.2071C150.872 11.7775 151.873 11.5415 152.939 11.4896C153.076 11.4849 153.218 11.4802 153.359 11.4802C153.478 11.4802 153.591 11.4802 153.704 11.4849C155.224 11.5368 156.362 11.9333 157.112 12.6697C157.924 13.4581 158.33 14.6995 158.33 16.3942V32.274H165.619V16.2337C165.619 12.9577 164.774 10.4558 163.079 8.72811Z" fill="white"/>
<path d="M65.7423 30.2158C67.3284 31.8396 69.5281 32.6987 72.351 32.8026C72.5398 32.8073 72.7286 32.812 72.9221 32.812C76.1509 32.812 78.9502 31.9812 81.3057 30.3102C81.5229 30.1638 81.7353 30.0033 81.943 29.8381L82.2121 32.2692H88.9624V6.66992H81.6692V24.8155C81.471 25.0138 81.2633 25.2073 81.0461 25.382C80.5788 25.7785 80.0642 26.1231 79.5119 26.4252C79.309 26.5338 79.1013 26.6376 78.8888 26.7368C77.9495 27.1663 76.9487 27.4023 75.8819 27.4543C75.745 27.459 75.6034 27.4637 75.4618 27.4637C75.3437 27.4637 75.2305 27.4637 75.1172 27.459C73.5972 27.4071 72.4595 27.0105 71.709 26.2741C70.897 25.4858 70.4911 24.2443 70.4911 22.5497V6.66992H63.2026V22.7102C63.2026 25.9862 64.0476 28.4881 65.7423 30.2158Z" fill="white"/>
</svg>
