<svg width="29" height="28" viewBox="0 0 29 28" fill="none" xmlns="http://www.w3.org/2000/svg">
<g id="iconamoon:profile-fill">
<path id="Vector" fill-rule="evenodd" clip-rule="evenodd" d="M8 7C8 5.93913 8.42143 4.92172 9.17157 4.17157C9.92172 3.42143 10.9391 3 12 3C13.0609 3 14.0783 3.42143 14.8284 4.17157C15.5786 4.92172 16 5.93913 16 7C16 8.06087 15.5786 9.07828 14.8284 9.82843C14.0783 10.5786 13.0609 11 12 11C10.9391 11 9.92172 10.5786 9.17157 9.82843C8.42143 9.07828 8 8.06087 8 7ZM8 13C6.67392 13 5.40215 13.5268 4.46447 14.4645C3.52678 15.4021 3 16.6739 3 18C3 18.7956 3.31607 19.5587 3.87868 20.1213C4.44129 20.6839 5.20435 21 6 21H18C18.7956 21 19.5587 20.6839 20.1213 20.1213C20.6839 19.5587 21 18.7956 21 18C21 16.6739 20.4732 15.4021 19.5355 14.4645C18.5979 13.5268 17.3261 13 16 13H8Z" fill="white"/>
<path id="Vector_2" d="M17.6662 21.3901L23.7845 14.798C23.7845 14.798 23.7845 14.798 23.7845 14.7979C23.7846 14.7979 23.7846 14.7979 23.7846 14.7979C23.942 14.6282 24.1319 14.4904 24.3451 14.3952C24.5586 14.2999 24.7896 14.25 25.0244 14.25C25.2591 14.25 25.4901 14.2999 25.7036 14.3952C25.9168 14.4904 26.1067 14.6282 26.2641 14.7979L17.6662 21.3901ZM17.6662 21.3901L15.2307 18.7662C15.0756 18.5946 14.8875 18.4543 14.6756 18.3562L14.6756 18.3562C14.4612 18.257 14.2283 18.2038 13.991 18.2016C13.7537 18.1993 13.5198 18.2482 13.3036 18.3435L13.6061 19.0298L13.3036 18.3435C13.0876 18.4387 12.8952 18.5776 12.736 18.7491C12.577 18.9204 12.4539 19.1212 12.3715 19.3382C12.2891 19.5552 12.2482 19.786 12.2501 20.0177C12.2519 20.2493 12.2965 20.4794 12.3825 20.6951C12.4677 20.9085 12.5923 21.1053 12.752 21.2728L16.3809 25.1817C16.5444 25.3579 16.7415 25.5008 16.9626 25.5995C17.1839 25.6983 17.4233 25.75 17.6666 25.75C17.9098 25.75 18.1492 25.6983 18.3705 25.5995C18.5916 25.5008 18.7887 25.3579 18.9521 25.1818C18.9522 25.1818 18.9522 25.1818 18.9522 25.1817L26.2641 17.3044L26.2641 17.3043C26.5808 16.963 26.75 16.5114 26.75 16.0511C26.75 15.5909 26.5809 15.1393 26.2642 14.798L17.6662 21.3901Z" fill="white" stroke="#F55527" stroke-width="1.5"/>
</g>
</svg>
