<svg width="36" height="36" viewBox="0 0 36 36" fill="none" xmlns="http://www.w3.org/2000/svg">
<g id="bxs:game">
<path id="Vector" d="M18 33C23.5785 33 28.5945 29.9475 31.2135 25.029L19.5 18L31.2135 10.971C28.5945 6.0525 23.5785 3 18 3C9.729 3 3 9.729 3 18C3 26.271 9.729 33 18 33ZM17.25 9C17.8469 9.0002 18.4193 9.23752 18.8413 9.65976C19.2633 10.082 19.5002 10.6546 19.5 11.2515C19.4998 11.8484 19.2625 12.4208 18.8402 12.8428C18.418 13.2648 17.8454 13.5017 17.2485 13.5015C16.6516 13.5013 16.0792 13.264 15.6572 12.8417C15.2352 12.4195 14.9983 11.8469 14.9985 11.25C14.9987 10.6531 15.236 10.0807 15.6583 9.6587C16.0805 9.23674 16.6531 8.9998 17.25 9Z" fill="white"/>
</g>
</svg>
