<svg width="36" height="36" viewBox="0 0 36 36" fill="none" xmlns="http://www.w3.org/2000/svg">
<g id="icon-park-solid:game-ps">
<g id="Group">
<path id="Vector" d="M33 21H21V33H33V21ZM9.75 3L16.5 15H3L9.75 3ZM27 15C28.5913 15 30.1174 14.3679 31.2426 13.2426C32.3679 12.1174 33 10.5913 33 9C33 7.4087 32.3679 5.88258 31.2426 4.75736C30.1174 3.63214 28.5913 3 27 3C25.4087 3 23.8826 3.63214 22.7574 4.75736C21.6321 5.88258 21 7.4087 21 9C21 10.5913 21.6321 12.1174 22.7574 13.2426C23.8826 14.3679 25.4087 15 27 15Z" fill="white" stroke="white" stroke-width="4" stroke-linejoin="round"/>
<path id="Vector_2" d="M3 21L15 33M15 21L3 33" stroke="white" stroke-width="4" stroke-linecap="round" stroke-linejoin="round"/>
</g>
</g>
</svg>
