<svg width="36" height="36" viewBox="0 0 36 36" fill="none" xmlns="http://www.w3.org/2000/svg">
<g id="mingcute:game-2-fill" clip-path="url(#clip0_0_205)">
<g id="Group">
<path id="Vector" d="M25.5002 6C27.1592 6 28.4327 7.2645 29.3762 8.625L29.6957 9.1065L29.9882 9.5865C30.0812 9.7425 30.1697 9.8985 30.2552 10.0485C31.4357 12.159 32.4632 14.9145 33.1427 17.637C33.8177 20.3385 34.1912 23.16 33.9527 25.3785C33.7127 27.606 32.5652 30 30.0002 30C27.6992 30 25.8857 28.77 24.4127 27.5685L22.7477 26.172C21.3632 25.038 19.8482 24 18.0002 24C16.1522 24 14.6357 25.038 13.2542 26.172L11.5892 27.567C10.1132 28.77 8.29969 30 6.00019 30C3.43369 30 2.28619 27.606 2.04769 25.3785C1.81069 23.1585 2.18269 20.3385 2.85769 17.637C3.53719 14.9145 4.56469 12.159 5.74519 10.0485L6.01219 9.585L6.30469 9.1065L6.62419 8.625C7.56769 7.2645 8.84119 6 10.5002 6C11.2652 6 12.0257 6.186 12.7727 6.405L13.6622 6.678C13.8092 6.723 13.9547 6.7665 14.1002 6.807C15.3977 7.179 16.7252 7.5 18.0002 7.5C19.2752 7.5 20.6027 7.179 21.9002 6.807L23.2277 6.4065C23.9747 6.186 24.7352 6 25.5002 6ZM12.7502 12C11.7556 12 10.8018 12.3951 10.0985 13.0983C9.39527 13.8016 9.00019 14.7554 9.00019 15.75C9.00019 16.7446 9.39527 17.6984 10.0985 18.4017C10.8018 19.1049 11.7556 19.5 12.7502 19.5C13.7447 19.5 14.6986 19.1049 15.4018 18.4017C16.1051 17.6984 16.5002 16.7446 16.5002 15.75C16.5002 14.7554 16.1051 13.8016 15.4018 13.0983C14.6986 12.3951 13.7447 12 12.7502 12ZM23.2502 12C22.8524 12 22.4708 12.158 22.1895 12.4393C21.9082 12.7206 21.7502 13.1022 21.7502 13.5V14.25H21.0002C20.6024 14.25 20.2208 14.408 19.9395 14.6893C19.6582 14.9706 19.5002 15.3522 19.5002 15.75C19.5002 16.1478 19.6582 16.5294 19.9395 16.8107C20.2208 17.092 20.6024 17.25 21.0002 17.25H21.7502V18C21.7502 18.3978 21.9082 18.7794 22.1895 19.0607C22.4708 19.342 22.8524 19.5 23.2502 19.5C23.648 19.5 24.0295 19.342 24.3108 19.0607C24.5921 18.7794 24.7502 18.3978 24.7502 18V17.25H25.5002C25.898 17.25 26.2795 17.092 26.5608 16.8107C26.8421 16.5294 27.0002 16.1478 27.0002 15.75C27.0002 15.3522 26.8421 14.9706 26.5608 14.6893C26.2795 14.408 25.898 14.25 25.5002 14.25H24.7502V13.5C24.7502 13.1022 24.5921 12.7206 24.3108 12.4393C24.0295 12.158 23.648 12 23.2502 12ZM12.7502 15C12.9491 15 13.1399 15.079 13.2805 15.2197C13.4212 15.3603 13.5002 15.5511 13.5002 15.75C13.5002 15.9489 13.4212 16.1397 13.2805 16.2803C13.1399 16.421 12.9491 16.5 12.7502 16.5C12.5513 16.5 12.3605 16.421 12.2199 16.2803C12.0792 16.1397 12.0002 15.9489 12.0002 15.75C12.0002 15.5511 12.0792 15.3603 12.2199 15.2197C12.3605 15.079 12.5513 15 12.7502 15Z" fill="white"/>
</g>
</g>
<defs>
<clipPath id="clip0_0_205">
<rect width="36" height="36" fill="white"/>
</clipPath>
</defs>
</svg>
