<svg width="36" height="36" viewBox="0 0 36 36" fill="none" xmlns="http://www.w3.org/2000/svg">
<g id="streamline:desktop-game-solid">
<path id="Vector" fill-rule="evenodd" clip-rule="evenodd" d="M0 5.03222C0 2.96222 1.67657 1.28564 3.74657 1.28564H32.2534C34.3234 1.28564 36 2.96222 36 5.03222V24.5391C36 26.6091 34.3234 28.2856 32.2534 28.2856H21.9009L23.2766 32.1299H25.7143C26.2258 32.1299 26.7163 32.3331 27.078 32.6948C27.4397 33.0565 27.6429 33.547 27.6429 34.0585C27.6429 34.57 27.4397 35.0605 27.078 35.4222C26.7163 35.7839 26.2258 35.9871 25.7143 35.9871H10.2857C9.77423 35.9871 9.28369 35.7839 8.92201 35.4222C8.56033 35.0605 8.35714 34.57 8.35714 34.0585C8.35714 33.547 8.56033 33.0565 8.92201 32.6948C9.28369 32.3331 9.77423 32.1299 10.2857 32.1299H12.7234L14.0991 28.2856H3.74657C3.25456 28.2856 2.76738 28.1887 2.31282 28.0005C1.85827 27.8122 1.44525 27.5362 1.09735 27.1883C0.749444 26.8404 0.473474 26.4274 0.285191 25.9728C0.0969079 25.5183 0 25.0311 0 24.5391L0 5.03222ZM5.30743 14.2199C5.30743 13.3328 6.02743 12.6128 6.91457 12.6128H9.16457V10.3628C9.16457 9.93655 9.33389 9.52776 9.63529 9.22637C9.93669 8.92497 10.3455 8.75564 10.7717 8.75564C11.198 8.75564 11.6067 8.92497 11.9081 9.22637C12.2095 9.52776 12.3789 9.93655 12.3789 10.3628V12.6128H14.6289C15.0551 12.6128 15.4639 12.7821 15.7653 13.0835C16.0667 13.3849 16.236 13.7937 16.236 14.2199C16.236 14.6462 16.0667 15.055 15.7653 15.3564C15.4639 15.6578 15.0551 15.8271 14.6289 15.8271H12.3789V18.0771C12.3789 18.5033 12.2095 18.9121 11.9081 19.2135C11.6067 19.5149 11.198 19.6842 10.7717 19.6842C10.3455 19.6842 9.93669 19.5149 9.63529 19.2135C9.33389 18.9121 9.16457 18.5033 9.16457 18.0771V15.8271H6.91457C6.48833 15.8271 6.07955 15.6578 5.77815 15.3564C5.47675 15.055 5.30743 14.6462 5.30743 14.2199ZM25.9869 11.7128C25.9869 12.3095 26.2239 12.8818 26.6459 13.3038C27.0678 13.7257 27.6401 13.9628 28.2369 13.9628C28.8336 13.9628 29.4059 13.7257 29.8278 13.3038C30.2498 12.8818 30.4869 12.3095 30.4869 11.7128C30.4869 11.116 30.2498 10.5438 29.8278 10.1218C29.4059 9.69984 28.8336 9.46279 28.2369 9.46279C27.6401 9.46279 27.0678 9.69984 26.6459 10.1218C26.2239 10.5438 25.9869 11.116 25.9869 11.7128ZM20.9957 16.7271C20.9957 17.3238 21.2328 17.8961 21.6547 18.3181C22.0767 18.74 22.649 18.9771 23.2457 18.9771C23.8425 18.9771 24.4147 18.74 24.8367 18.3181C25.2587 17.8961 25.4957 17.3238 25.4957 16.7271C25.4957 16.1303 25.2587 15.558 24.8367 15.1361C24.4147 14.7141 23.8425 14.4771 23.2457 14.4771C22.649 14.4771 22.0767 14.7141 21.6547 15.1361C21.2328 15.558 20.9957 16.1303 20.9957 16.7271Z" fill="white"/>
</g>
</svg>
